<svg xmlns="http://www.w3.org/2000/svg" width="9000" height="9000" fill="none" viewBox="0 0 9000 9000">
  <g clip-path="url(#a)">
    <path fill="#D9D9D9" d="M2617.4 4819.26c-717.43-204.98-727.66-1218.03-14.52-1437.45 14.7-4.53 29.86-7.43 45.19-8.66l4124.56-329.96c342.53-27.4 679.85 96.79 922.84 339.78 790.95 790.95 131.04 2134.85-978.46 1992.61l-3887.55-498.41a224.899 224.899 0 0 1-33.4-6.87l-178.66-51.04Z"/>
    <circle cx="6750" cy="4125" r="750" fill="#000"/>
    <circle cx="6937.5" cy="3937.5" r="187.5" fill="#D9D9D9"/>
    <path fill="#D9D9D9" stroke="#000" stroke-width="37.5" d="m4345.56 4620.34 308.49 16.15c61.02 3.2 116.16-36.16 132.98-94.9 23.22-81.1-35.03-162.71-119.26-167.12l-292.45-15.31a326.722 326.722 0 0 1-141.09-40.39L3977.99 4177c-73.81-40.84-166.42-2.41-189.63 78.69-16.82 58.74 9.14 121.32 62.61 150.9l270.3 149.54a519.379 519.379 0 0 0 224.29 64.21Z"/>
  </g>
  <defs>
    <clipPath id="a">
      <path fill="#fff" d="M0 0h9000v9000H0z"/>
    </clipPath>
  </defs>
</svg>
