<svg xmlns="http://www.w3.org/2000/svg" width="24" height="24" fill="none" viewBox="0 0 24 24">
  <g clip-path="url(#a)">
    <path fill="#D9D9D9" d="M6.98 12.851c-1.913-.546-1.94-3.248-.039-3.833.04-.012.08-.02.12-.023l11-.88a3.127 3.127 0 0 1 2.46.906c2.11 2.11.35 5.693-2.609 5.314l-10.367-1.33a.614.614 0 0 1-.089-.018l-.476-.136Z"/>
    <circle cx="18" cy="11" r="2" fill="#000"/>
    <circle cx="18.5" cy="10.5" r=".5" fill="#D9D9D9"/>
    <path fill="#D9D9D9" stroke="#000" stroke-width=".1" d="M12.41 12.364a.35.35 0 0 0 .037-.699l-.78-.04a.87.87 0 0 1-.376-.108l-.683-.378a.35.35 0 1 0-.339.612l.721.399c.184.101.388.16.598.17l.823.044Z"/>
  </g>
  <defs>
    <clipPath id="a">
      <path fill="#fff" d="M0 0h24v24H0z"/>
    </clipPath>
  </defs>
</svg>
